<svg id="Группа_18" data-name="Группа 18" xmlns="http://www.w3.org/2000/svg" width="23.78" height="107" viewBox="0 0 23.78 107">
  <defs>
    <style>
      .cls-1 {
        fill: #fff;
        fill-rule: evenodd;
      }
    </style>
  </defs>
  <path id="Фигура_837_копия" data-name="Фигура 837 копия" class="cls-1" d="M1368,784l-4.5,5-4.5-5h4V682h1V784h4Z" transform="translate(-1359 -682)"/>
  <path id="листай_ниже" data-name="листай ниже" class="cls-1" d="M1374.3,681.986c0.12,1.547,1.4,2.23,4.25,2.23h1.12V686.3h-5.33v0.816h6.04v-3.694h-1.83c-2.23,0-3.37-.432-3.52-1.439h-0.73Zm0.04,7.391v0.78l3.97,2.962c0.34,0.228.82,0.6,0.88,0.612v0.024c-0.05,0-.53-0.036-0.88-0.036h-3.97v0.8h6.04v-0.779l-3.96-2.963c-0.34-.239-0.85-0.6-0.9-0.623v-0.024c0.02,0.012.53,0.036,0.9,0.036h3.96v-0.792h-6.04Zm3.01,6.984a3.056,3.056,0,0,0-3.15,3.166,3.214,3.214,0,0,0,.96,2.351l0.61-.372a2.679,2.679,0,0,1-.83-1.931,2.426,2.426,0,0,1,4.85-.024,2.56,2.56,0,0,1-.74,1.764l0.61,0.419A3.193,3.193,0,0,0,1377.35,696.361Zm-3.01,8.711v0.816h5.32v2.206h0.72v-5.217h-0.72v2.2h-5.32Zm1.62,3.985a1.856,1.856,0,0,0-1.76,2.039,2.22,2.22,0,0,0,1.36,2.039v0.024a3.336,3.336,0,0,0-.51-0.036h-0.71v0.78h3.87a2.052,2.052,0,0,0,2.31-2.255,3.567,3.567,0,0,0-.68-2.135l-0.63.372a2.948,2.948,0,0,1,.58,1.715,1.354,1.354,0,0,1-1.56,1.487h-0.17v-0.36C1378.06,711.576,1377.94,709.057,1375.96,709.057Zm0.08,0.828c1.34,0,1.37,1.919,1.37,2.854v0.348h-0.27a2.1,2.1,0,0,1-2.26-1.847A1.22,1.22,0,0,1,1376.04,709.885Zm5.13,8.77a1.462,1.462,0,0,0,1.41,1.584h0.21v-0.7h-0.17a0.838,0.838,0,0,1-.84-0.888,0.82,0.82,0,0,1,.83-0.875h0.18v-0.708h-0.21A1.461,1.461,0,0,0,1381.17,718.655Zm-6.83-2.566v0.779l3.97,2.963c0.34,0.228.82,0.6,0.88,0.611v0.024c-0.05,0-.53-0.036-0.88-0.036h-3.97v0.8h6.04v-0.78l-3.96-2.962c-0.34-.24-0.85-0.6-0.9-0.624v-0.024c0.02,0.012.53,0.036,0.9,0.036h3.96v-0.791h-6.04Zm0,10.692V727.6h2.74v3.526h-2.74v0.816h6.04v-0.816h-2.58V727.6h2.58v-0.815h-6.04Zm0,7.4v0.779l3.97,2.963c0.34,0.227.82,0.6,0.88,0.611v0.024c-0.05,0-.53-0.036-0.88-0.036h-3.97v0.8h6.04v-0.78l-3.96-2.962c-0.34-.24-0.85-0.6-0.9-0.624V734.94c0.02,0.012.53,0.036,0.9,0.036h3.96v-0.791h-6.04Zm0,6.66v0.947l2.73,1.775v0.96h-2.73v0.791h2.73v0.972l-2.73,1.763v0.959l3.09-2.038h0.02l2.93,1.847v-0.9l-2.59-1.631v-0.972h2.59v-0.791h-2.59v-0.972l2.59-1.631v-0.887l-2.93,1.847h-0.02Zm3.01,9.072a3.06,3.06,0,0,0-3.15,3.166,3.447,3.447,0,0,0,.84,2.231l0.62-.372a2.838,2.838,0,0,1-.72-1.835,2.285,2.285,0,0,1,2.39-2.339v4.63c0.13,0.012.28,0.024,0.41,0.024a2.512,2.512,0,0,0,2.78-2.519A2.956,2.956,0,0,0,1377.35,749.917Zm0.63,0.887a2.067,2.067,0,0,1,1.87,2.075,1.717,1.717,0,0,1-1.87,1.715V750.8Z" transform="translate(-1359 -682)"/>
</svg>
