<svg id="Группа_18" data-name="Группа 18" xmlns="http://www.w3.org/2000/svg" width="105.563" height="37.656" viewBox="0 0 105.563 37.656">
  <defs>
    <style>
      .cls-1 {
        fill: #333;
      }

      .cls-1, .cls-2, .cls-3 {
        fill-rule: evenodd;
      }

      .cls-2 {
        fill: #d22e30;
      }

      .cls-3 {
        fill: #999;
      }
    </style>
  </defs>
  <path id="АУДИ" class="cls-1" d="M218.387,42.077l0.774-2.7h4.014l0.792,2.7h3.24l-4.374-12.87h-3.312l-4.374,12.87h3.24Zm2.25-7.722q0.234-.81.522-2.214H221.2l0.522,2.214,0.72,2.5H219.9Zm11.2,7.938a3.375,3.375,0,0,0,1.458-.306,3.168,3.168,0,0,0,1.107-.864,6.881,6.881,0,0,0,.738-1.071,10.868,10.868,0,0,0,.549-1.2l3.8-9.648h-3.312l-1.584,4.644q-0.306.9-.5,1.71h-0.036l-0.7-1.728L231.2,29.207h-3.456l4.968,9.738a1.011,1.011,0,0,1-1.026.666,2.307,2.307,0,0,1-1.422-.648L228.9,41.321a5.025,5.025,0,0,0,2.934.972h0Zm13.257-6.138a20.845,20.845,0,0,0,.333-3.654V31.907H248v7.488h-3.978A10.764,10.764,0,0,0,245.09,36.155ZM239.465,44.6h2.9v-2.52H249.8V44.6h2.79v-5.2h-1.44V29.207h-8.712v3.042a14.149,14.149,0,0,1-1.638,7.146h-1.332v5.2Zm19.17-2.52,3.582-5.994a18.8,18.8,0,0,0,1.08-2.2h0.036l-0.144,2.2v5.994h3.15V29.207h-3.186l-3.564,6.012a18.825,18.825,0,0,0-1.08,2.2h-0.036l0.144-2.2V29.207h-3.15v12.87h3.168Z" transform="translate(-215.156 -29.219)"/>
  <path id="_." data-name="          ." class="cls-2" d="M273.215,42.077V39.125h-2.952v2.952h2.952Z" transform="translate(-215.156 -29.219)"/>
  <path id="Центр_Саратов" data-name="Центр Саратов" class="cls-3" d="M215.406,64.077h7.48v1.961H224.5V62.522H223.32V54.131h-1.807v8.391h-4.3V54.131h-1.807v9.945ZM225.682,60.5a3.672,3.672,0,0,0,3.852,3.74,4.519,4.519,0,0,0,2.871-1.023l-0.7-1.275a3.377,3.377,0,0,1-2.045.784,2.024,2.024,0,0,1-2.143-1.891h4.916a5.672,5.672,0,0,0,.056-0.686,3.1,3.1,0,0,0-3.165-3.39A3.534,3.534,0,0,0,225.682,60.5Zm1.877-.883a1.712,1.712,0,0,1,1.723-1.513,1.406,1.406,0,0,1,1.428,1.513h-3.151Zm6.761,4.454H236.1V61.191h3.053v2.886h1.779V56.933h-1.779v2.76H236.1v-2.76H234.32v7.144Zm10.528,0h1.765V58.446h2.368V56.933H242.5v1.513h2.353v5.631Zm5.683,2.8h1.779V63.853a4.146,4.146,0,0,0-.042-0.616H252.3a2.589,2.589,0,0,0,2.06,1.009c1.877,0,3.263-1.471,3.263-3.74,0-2.213-1.232-3.74-3.165-3.74a2.619,2.619,0,0,0-2.3,1.2h-0.028a4.868,4.868,0,0,0,.028-0.5V56.933h-1.625v9.945Zm1.723-6.331c0-1.583.869-2.255,1.807-2.255,1.037,0,1.765.883,1.765,2.241,0,1.415-.812,2.213-1.793,2.213A1.966,1.966,0,0,1,252.254,60.547Zm10.751-1.485a4.953,4.953,0,0,0,5.141,5.183,5.33,5.33,0,0,0,3.908-1.611l-0.952-1.3a4.265,4.265,0,0,1-2.886,1.261,3.327,3.327,0,0,1-3.348-3.558,3.2,3.2,0,0,1,3.334-3.418,4.427,4.427,0,0,1,2.718,1.051l0.868-1.345a5.308,5.308,0,0,0-3.67-1.359A4.958,4.958,0,0,0,263.005,59.062Zm10.15,3.04a2.188,2.188,0,0,0,2.353,2.143,2.612,2.612,0,0,0,2.255-1.289h0.028a3.121,3.121,0,0,0-.042.518v0.6H279.4V59.608a2.658,2.658,0,0,0-2.969-2.843,4.9,4.9,0,0,0-2.8.882l0.659,1.275a3.658,3.658,0,0,1,1.989-.686,1.172,1.172,0,0,1,1.344,1.261v0.1h-0.308C275.732,59.594,273.155,59.959,273.155,62.1Zm1.765-.154c0-1.009,1.513-1.135,2.409-1.135h0.308v0.2A1.815,1.815,0,0,1,276,62.886,0.97,0.97,0,0,1,274.92,61.948Zm6.635,4.931h1.779V63.853a4.146,4.146,0,0,0-.042-0.616h0.028a2.587,2.587,0,0,0,2.059,1.009c1.877,0,3.264-1.471,3.264-3.74,0-2.213-1.233-3.74-3.166-3.74a2.618,2.618,0,0,0-2.3,1.2h-0.028a4.868,4.868,0,0,0,.028-0.5V56.933h-1.625v9.945Zm1.723-6.331c0-1.583.869-2.255,1.807-2.255,1.037,0,1.765.883,1.765,2.241,0,1.415-.812,2.213-1.793,2.213A1.965,1.965,0,0,1,283.278,60.547Zm6.677,1.555a2.187,2.187,0,0,0,2.353,2.143,2.612,2.612,0,0,0,2.255-1.289h0.028a3.121,3.121,0,0,0-.042.518v0.6H296.2V59.608a2.658,2.658,0,0,0-2.969-2.843,4.9,4.9,0,0,0-2.8.882l0.659,1.275a3.658,3.658,0,0,1,1.989-.686,1.172,1.172,0,0,1,1.344,1.261v0.1h-0.308C292.532,59.594,289.955,59.959,289.955,62.1Zm1.765-.154c0-1.009,1.513-1.135,2.409-1.135h0.308v0.2a1.815,1.815,0,0,1-1.639,1.877A0.97,0.97,0,0,1,291.72,61.948Zm8.232,2.129h1.765V58.446h2.367V56.933H297.6v1.513h2.353v5.631Zm5.067-3.572a3.926,3.926,0,1,0,3.908-3.74A3.748,3.748,0,0,0,305.019,60.5Zm1.807,0a2.125,2.125,0,1,1,2.115,2.227A2.124,2.124,0,0,1,306.826,60.5Zm7.853,3.572h3.39c1.5,0,2.662-.644,2.662-2.073a1.641,1.641,0,0,0-1.261-1.639V60.351a1.715,1.715,0,0,0,.938-1.569c0-1.2-.966-1.849-2.409-1.849h-3.32v7.144Zm1.779-4.2V58.1h1.135a0.843,0.843,0,0,1,1.022.84,0.885,0.885,0,0,1-.994.939h-1.163Zm0,3.026V60.981h1.3a0.98,0.98,0,1,1,0,1.919h-1.3Z" transform="translate(-215.156 -29.219)"/>
</svg>
